<svg xmlns="http://www.w3.org/2000/svg" xmlns:xlink="http://www.w3.org/1999/xlink" width="500" zoomAndPan="magnify" viewBox="0 0 375 374.999991" height="500" preserveAspectRatio="xMidYMid meet" version="1.0"><defs><g/><clipPath id="28b5f37f8f"><path d="M 56.011719 133 L 113.664062 133 L 113.664062 230.363281 L 56.011719 230.363281 Z M 56.011719 133 " clip-rule="nonzero"/></clipPath><clipPath id="60ae8a48c7"><path d="M 102.71875 132.816406 L 124.695312 132.816406 L 124.695312 154.792969 L 102.71875 154.792969 Z M 102.71875 132.816406 " clip-rule="nonzero"/></clipPath><clipPath id="f260e04575"><path d="M 113.707031 132.816406 C 107.640625 132.816406 102.71875 137.738281 102.71875 143.804688 C 102.71875 149.875 107.640625 154.792969 113.707031 154.792969 C 119.777344 154.792969 124.695312 149.875 124.695312 143.804688 C 124.695312 137.738281 119.777344 132.816406 113.707031 132.816406 Z M 113.707031 132.816406 " clip-rule="nonzero"/></clipPath></defs><g clip-path="url(#28b5f37f8f)"><path fill="#000000" d="M 109.316406 181.554688 C 109.316406 178.859375 108.121094 176.332031 106.039062 174.625 L 60.757812 137.476562 C 60.671875 137.410156 60.605469 137.402344 60.507812 137.445312 C 60.410156 137.496094 60.371094 137.550781 60.371094 137.660156 L 60.371094 160.210938 C 60.371094 160.28125 60.402344 160.347656 60.457031 160.394531 L 81.921875 178 C 82.148438 178.1875 82.359375 178.394531 82.546875 178.621094 C 82.554688 178.628906 82.566406 178.640625 82.574219 178.652344 L 82.636719 178.714844 C 82.671875 178.75 82.703125 178.785156 82.734375 178.820312 C 82.761719 178.847656 82.789062 178.875 82.8125 178.902344 L 82.875 178.96875 C 82.910156 179.003906 82.941406 179.039062 82.976562 179.078125 C 83 179.105469 83.027344 179.132812 83.050781 179.160156 L 83.113281 179.226562 C 83.144531 179.261719 83.179688 179.300781 83.210938 179.335938 C 83.234375 179.363281 83.257812 179.390625 83.28125 179.414062 L 83.34375 179.484375 C 83.378906 179.523438 83.410156 179.558594 83.445312 179.597656 C 83.46875 179.621094 83.488281 179.648438 83.511719 179.675781 L 83.570312 179.742188 C 83.605469 179.78125 83.640625 179.820312 83.675781 179.863281 C 83.695312 179.886719 83.714844 179.910156 83.738281 179.933594 L 83.792969 180 C 83.828125 180.042969 83.863281 180.082031 83.898438 180.125 L 84.011719 180.257812 C 84.046875 180.304688 84.085938 180.347656 84.121094 180.390625 C 84.140625 180.414062 84.160156 180.4375 84.175781 180.460938 L 84.226562 180.519531 C 84.261719 180.566406 84.300781 180.613281 84.339844 180.660156 L 84.445312 180.792969 C 84.480469 180.839844 84.515625 180.882812 84.554688 180.929688 L 84.648438 181.050781 C 84.6875 181.101562 84.726562 181.152344 84.765625 181.199219 L 84.851562 181.316406 C 84.890625 181.367188 84.929688 181.421875 84.972656 181.472656 L 85.054688 181.589844 C 85.09375 181.640625 85.132812 181.695312 85.171875 181.75 L 85.25 181.855469 C 85.292969 181.910156 85.332031 181.96875 85.371094 182.023438 L 85.449219 182.128906 C 85.488281 182.1875 85.527344 182.246094 85.566406 182.300781 L 85.625 182.386719 C 85.671875 182.449219 85.714844 182.515625 85.757812 182.578125 L 85.816406 182.667969 C 85.859375 182.730469 85.902344 182.796875 85.945312 182.859375 L 86 182.941406 C 86.042969 183.007812 86.085938 183.074219 86.128906 183.140625 L 86.179688 183.222656 C 86.222656 183.289062 86.265625 183.359375 86.308594 183.425781 L 86.355469 183.496094 C 86.398438 183.570312 86.441406 183.640625 86.484375 183.710938 L 86.527344 183.78125 C 86.570312 183.851562 86.613281 183.921875 86.65625 183.996094 L 86.695312 184.066406 C 86.738281 184.136719 86.78125 184.207031 86.824219 184.28125 L 86.863281 184.351562 C 86.90625 184.421875 86.945312 184.496094 86.988281 184.570312 L 87.023438 184.636719 C 87.066406 184.710938 87.105469 184.785156 87.148438 184.859375 L 87.179688 184.921875 C 87.222656 185 87.261719 185.074219 87.304688 185.148438 L 87.332031 185.207031 C 87.375 185.285156 87.414062 185.363281 87.457031 185.441406 L 87.484375 185.5 C 87.523438 185.578125 87.566406 185.65625 87.601562 185.734375 L 87.628906 185.789062 C 87.667969 185.867188 87.707031 185.949219 87.746094 186.027344 L 87.773438 186.089844 C 87.8125 186.164062 87.851562 186.246094 87.886719 186.324219 L 87.910156 186.378906 C 87.949219 186.457031 87.984375 186.539062 88.023438 186.621094 L 88.042969 186.671875 C 88.082031 186.753906 88.117188 186.835938 88.152344 186.917969 L 88.175781 186.96875 C 88.210938 187.050781 88.246094 187.132812 88.28125 187.214844 L 88.300781 187.261719 C 88.335938 187.347656 88.371094 187.429688 88.402344 187.515625 L 88.421875 187.5625 C 88.457031 187.644531 88.492188 187.730469 88.523438 187.816406 L 88.539062 187.859375 C 88.574219 187.945312 88.605469 188.03125 88.636719 188.117188 L 88.65625 188.160156 C 88.6875 188.246094 88.71875 188.332031 88.75 188.417969 L 88.765625 188.464844 C 88.796875 188.546875 88.828125 188.632812 88.855469 188.722656 L 88.871094 188.765625 C 88.902344 188.851562 88.929688 188.9375 88.957031 189.023438 L 88.972656 189.066406 C 89 189.152344 89.03125 189.242188 89.058594 189.328125 L 89.070312 189.367188 C 89.097656 189.457031 89.125 189.546875 89.152344 189.632812 L 89.164062 189.671875 C 89.1875 189.761719 89.214844 189.851562 89.242188 189.941406 L 89.253906 189.980469 C 89.277344 190.066406 89.304688 190.15625 89.328125 190.25 L 89.339844 190.289062 C 89.363281 190.375 89.386719 190.464844 89.410156 190.554688 L 89.417969 190.59375 C 89.441406 190.683594 89.464844 190.773438 89.488281 190.863281 L 89.492188 190.894531 C 89.515625 190.988281 89.539062 191.082031 89.558594 191.171875 L 89.570312 191.210938 C 89.589844 191.300781 89.609375 191.390625 89.628906 191.480469 L 89.632812 191.511719 C 89.65625 191.609375 89.675781 191.699219 89.691406 191.792969 L 89.699219 191.820312 C 89.71875 191.917969 89.734375 192.011719 89.753906 192.101562 L 89.757812 192.132812 C 89.773438 192.226562 89.792969 192.320312 89.808594 192.414062 L 89.8125 192.445312 C 89.828125 192.539062 89.84375 192.632812 89.859375 192.726562 L 89.863281 192.757812 C 89.878906 192.847656 89.894531 192.945312 89.90625 193.039062 L 89.910156 193.066406 C 89.921875 193.160156 89.9375 193.257812 89.949219 193.351562 L 89.953125 193.378906 C 89.964844 193.472656 89.976562 193.570312 89.988281 193.664062 L 89.988281 193.679688 C 90 193.78125 90.011719 193.878906 90.019531 193.976562 L 90.023438 193.996094 C 90.03125 194.09375 90.042969 194.191406 90.050781 194.289062 L 90.050781 194.324219 C 90.0625 194.421875 90.066406 194.511719 90.074219 194.605469 L 90.078125 194.628906 C 90.082031 194.726562 90.089844 194.824219 90.09375 194.917969 L 90.097656 194.945312 C 90.101562 195.042969 90.105469 195.136719 90.109375 195.234375 L 90.113281 195.261719 C 90.117188 195.359375 90.121094 195.453125 90.121094 195.546875 L 90.121094 195.585938 C 90.125 195.679688 90.128906 195.769531 90.128906 195.863281 L 90.128906 195.910156 C 90.132812 196 90.132812 196.089844 90.132812 196.175781 L 90.132812 196.226562 C 90.132812 196.425781 90.128906 196.621094 90.121094 196.808594 C 90.121094 196.832031 90.121094 196.855469 90.121094 196.878906 L 90.117188 196.945312 C 90.117188 197.003906 90.113281 197.0625 90.113281 197.121094 C 90.105469 197.226562 90.101562 197.332031 90.097656 197.4375 C 90.082031 197.640625 90.070312 197.84375 90.050781 198.046875 C 89.929688 199.464844 89.675781 200.859375 89.28125 202.230469 L 106.039062 188.484375 C 108.121094 186.777344 109.316406 184.25 109.316406 181.554688 Z M 82.105469 184.949219 C 82.046875 185.003906 81.984375 185.054688 81.921875 185.105469 L 60.457031 202.714844 C 60.402344 202.761719 60.371094 202.824219 60.371094 202.898438 L 60.371094 225.449219 C 60.371094 225.554688 60.410156 225.613281 60.507812 225.660156 C 60.605469 225.707031 60.675781 225.699219 60.757812 225.628906 L 77.691406 211.738281 L 77.714844 211.71875 C 77.777344 211.667969 77.835938 211.617188 77.894531 211.570312 L 77.953125 211.523438 C 77.988281 211.492188 78.023438 211.464844 78.058594 211.433594 L 78.316406 211.210938 C 78.347656 211.183594 78.378906 211.15625 78.40625 211.128906 L 78.476562 211.070312 C 78.527344 211.023438 78.582031 210.976562 78.632812 210.929688 L 78.652344 210.914062 C 82.761719 207.222656 85.199219 202.753906 85.6875 197.996094 C 85.695312 197.910156 85.707031 197.820312 85.714844 197.734375 L 85.71875 197.691406 C 85.730469 197.527344 85.742188 197.355469 85.753906 197.1875 C 85.761719 197.058594 85.765625 196.921875 85.773438 196.773438 L 85.773438 196.722656 C 85.777344 196.59375 85.78125 196.460938 85.78125 196.320312 L 85.78125 196.261719 C 85.78125 196.121094 85.78125 195.988281 85.777344 195.859375 L 85.777344 195.816406 C 85.773438 195.527344 85.757812 195.238281 85.738281 194.957031 L 85.738281 194.9375 C 85.726562 194.804688 85.714844 194.667969 85.703125 194.519531 L 85.699219 194.480469 C 85.683594 194.339844 85.671875 194.199219 85.652344 194.0625 L 85.648438 194.027344 C 85.597656 193.59375 85.527344 193.15625 85.441406 192.726562 L 85.433594 192.6875 C 85.410156 192.554688 85.378906 192.414062 85.347656 192.277344 L 85.339844 192.238281 C 85.308594 192.09375 85.273438 191.953125 85.242188 191.816406 L 85.238281 191.804688 C 85.167969 191.519531 85.089844 191.230469 85.003906 190.945312 L 84.992188 190.914062 C 84.953125 190.78125 84.910156 190.644531 84.867188 190.503906 L 84.851562 190.460938 C 84.804688 190.320312 84.757812 190.183594 84.714844 190.050781 L 84.703125 190.023438 C 84.605469 189.742188 84.5 189.460938 84.386719 189.183594 L 84.375 189.152344 C 84.320312 189.023438 84.265625 188.890625 84.207031 188.753906 L 84.183594 188.703125 C 84.125 188.566406 84.070312 188.4375 84.011719 188.308594 L 83.988281 188.265625 C 83.921875 188.117188 83.859375 187.984375 83.800781 187.859375 L 83.796875 187.851562 C 83.734375 187.726562 83.667969 187.59375 83.59375 187.449219 L 83.578125 187.417969 C 83.515625 187.292969 83.449219 187.167969 83.375 187.03125 L 83.34375 186.972656 C 83.273438 186.84375 83.203125 186.71875 83.132812 186.59375 L 83.101562 186.535156 C 83.023438 186.398438 82.949219 186.273438 82.878906 186.15625 L 82.859375 186.125 C 82.785156 186 82.707031 185.871094 82.628906 185.746094 L 82.609375 185.714844 C 82.539062 185.601562 82.457031 185.476562 82.367188 185.339844 L 82.328125 185.28125 C 82.257812 185.171875 82.179688 185.058594 82.105469 184.949219 Z M 56.023438 225.449219 L 56.023438 202.898438 C 56.023438 201.515625 56.632812 200.21875 57.703125 199.34375 L 79.167969 181.738281 C 79.261719 181.660156 79.28125 181.503906 79.207031 181.410156 L 79.203125 181.40625 C 79.195312 181.394531 79.179688 181.382812 79.167969 181.371094 L 57.703125 163.761719 C 56.632812 162.886719 56.023438 161.589844 56.023438 160.210938 L 56.023438 137.660156 C 56.023438 135.867188 57.027344 134.277344 58.644531 133.511719 C 60.261719 132.742188 62.128906 132.972656 63.511719 134.109375 L 108.792969 171.253906 C 111.890625 173.792969 113.664062 177.546875 113.664062 181.554688 C 113.664062 185.558594 111.890625 189.3125 108.792969 191.851562 L 80.492188 215.070312 C 80.476562 215.085938 80.457031 215.101562 80.4375 215.117188 L 63.511719 229 C 62.128906 230.136719 60.261719 230.363281 58.644531 229.597656 C 57.027344 228.832031 56.023438 227.238281 56.023438 225.449219 " fill-opacity="1" fill-rule="nonzero"/></g><g clip-path="url(#60ae8a48c7)"><g clip-path="url(#f260e04575)"><path fill="#000000" d="M 102.71875 132.816406 L 124.695312 132.816406 L 124.695312 154.792969 L 102.71875 154.792969 Z M 102.71875 132.816406 " fill-opacity="1" fill-rule="nonzero"/></g></g><g fill="#000000" fill-opacity="1"><g transform="translate(125.468028, 204.909359)"><g><path d="M 21.140625 14.65625 C 19.191406 14.65625 17.085938 14.492188 14.828125 14.171875 C 12.578125 13.847656 10.367188 13.328125 8.203125 12.609375 C 6.046875 11.898438 4.082031 10.984375 2.3125 9.859375 L 5.6875 -4 C 7.757812 -1.988281 10.171875 -0.554688 12.921875 0.296875 C 15.679688 1.160156 18.1875 1.59375 20.4375 1.59375 C 22.925781 1.59375 25.023438 1.207031 26.734375 0.4375 C 28.453125 -0.320312 29.84375 -1.410156 30.90625 -2.828125 C 31.976562 -4.253906 32.78125 -5.945312 33.3125 -7.90625 C 33.84375 -9.863281 34.109375 -11.992188 34.109375 -14.296875 L 34.296875 -21.9375 L 33.046875 -21.9375 C 32.804688 -17.914062 32.050781 -14.613281 30.78125 -12.03125 C 29.507812 -9.457031 27.851562 -7.5625 25.8125 -6.34375 C 23.769531 -5.132812 21.351562 -4.53125 18.5625 -4.53125 C 15.539062 -4.53125 13.066406 -5.148438 11.140625 -6.390625 C 9.222656 -7.640625 7.726562 -9.222656 6.65625 -11.140625 C 5.59375 -13.066406 4.820312 -15.109375 4.34375 -17.265625 C 3.875 -19.429688 3.59375 -21.460938 3.5 -23.359375 C 3.414062 -25.253906 3.375 -26.738281 3.375 -27.8125 L 3.375 -46.90625 L 17.6875 -46.90625 L 17.6875 -31.890625 C 17.6875 -30.828125 17.695312 -29.613281 17.71875 -28.25 C 17.75 -26.882812 17.867188 -25.535156 18.078125 -24.203125 C 18.285156 -22.878906 18.625 -21.640625 19.09375 -20.484375 C 19.570312 -19.328125 20.238281 -18.40625 21.09375 -17.71875 C 21.957031 -17.039062 23.070312 -16.703125 24.4375 -16.703125 C 25.851562 -16.703125 27.050781 -17.128906 28.03125 -17.984375 C 29.007812 -18.847656 29.78125 -19.988281 30.34375 -21.40625 C 30.90625 -22.832031 31.300781 -24.460938 31.53125 -26.296875 C 31.769531 -28.128906 31.890625 -30.023438 31.890625 -31.984375 L 31.890625 -46.90625 L 46.203125 -46.90625 L 46.203125 -13.765625 C 46.203125 -11.515625 46.035156 -9.265625 45.703125 -7.015625 C 45.378906 -4.765625 44.847656 -2.570312 44.109375 -0.4375 C 43.367188 1.6875 42.363281 3.648438 41.09375 5.453125 C 39.820312 7.265625 38.265625 8.863281 36.421875 10.25 C 34.585938 11.644531 32.394531 12.726562 29.84375 13.5 C 27.300781 14.269531 24.398438 14.65625 21.140625 14.65625 Z M 21.140625 14.65625 "/></g></g></g><g fill="#000000" fill-opacity="1"><g transform="translate(175.218589, 204.909359)"><g><path d="M 15.90625 1.25 C 13.414062 1.25 11.117188 0.804688 9.015625 -0.078125 C 6.910156 -0.972656 5.222656 -2.367188 3.953125 -4.265625 C 2.679688 -6.160156 2.046875 -8.617188 2.046875 -11.640625 C 2.046875 -14.660156 2.664062 -17.085938 3.90625 -18.921875 C 5.15625 -20.753906 6.816406 -22.203125 8.890625 -23.265625 C 10.960938 -24.335938 13.179688 -25.140625 15.546875 -25.671875 C 17.910156 -26.203125 20.160156 -26.648438 22.296875 -27.015625 C 24.960938 -27.484375 27.003906 -27.894531 28.421875 -28.25 C 29.847656 -28.601562 30.84375 -29.03125 31.40625 -29.53125 C 31.96875 -30.039062 32.25 -30.769531 32.25 -31.71875 C 32.25 -32.78125 31.96875 -33.695312 31.40625 -34.46875 C 30.84375 -35.238281 30.054688 -35.84375 29.046875 -36.28125 C 28.046875 -36.726562 26.832031 -36.953125 25.40625 -36.953125 C 23.988281 -36.953125 22.613281 -36.703125 21.28125 -36.203125 C 19.945312 -35.703125 18.847656 -34.859375 17.984375 -33.671875 C 17.128906 -32.484375 16.644531 -30.851562 16.53125 -28.78125 L 3.8125 -30.65625 C 4 -33.96875 4.742188 -36.75 6.046875 -39 C 7.347656 -41.25 9.035156 -43.039062 11.109375 -44.375 C 13.179688 -45.707031 15.488281 -46.671875 18.03125 -47.265625 C 20.582031 -47.859375 23.160156 -48.15625 25.765625 -48.15625 C 29.316406 -48.15625 32.378906 -47.695312 34.953125 -46.78125 C 37.535156 -45.863281 39.671875 -44.46875 41.359375 -42.59375 C 43.046875 -40.726562 44.285156 -38.421875 45.078125 -35.671875 C 45.878906 -32.921875 46.28125 -29.765625 46.28125 -26.203125 L 46.28125 -18.21875 C 46.28125 -16.195312 46.296875 -14.164062 46.328125 -12.125 C 46.359375 -10.082031 46.398438 -8.050781 46.453125 -6.03125 C 46.515625 -4.019531 46.578125 -2.007812 46.640625 0 L 34.109375 0 C 34.054688 -1.894531 34 -3.894531 33.9375 -6 C 33.875 -8.101562 33.816406 -10.304688 33.765625 -12.609375 L 32.875 -12.609375 C 32.394531 -10.066406 31.398438 -7.742188 29.890625 -5.640625 C 28.378906 -3.535156 26.425781 -1.859375 24.03125 -0.609375 C 21.632812 0.628906 18.925781 1.25 15.90625 1.25 Z M 21.9375 -9.15625 C 23.007812 -9.15625 24.109375 -9.347656 25.234375 -9.734375 C 26.359375 -10.117188 27.4375 -10.722656 28.46875 -11.546875 C 29.507812 -12.378906 30.382812 -13.472656 31.09375 -14.828125 C 31.800781 -16.191406 32.21875 -17.851562 32.34375 -19.8125 L 32.34375 -23.546875 L 34.5625 -23.546875 C 33.851562 -22.835938 32.90625 -22.242188 31.71875 -21.765625 C 30.53125 -21.296875 29.253906 -20.941406 27.890625 -20.703125 C 26.535156 -20.460938 25.175781 -20.207031 23.8125 -19.9375 C 22.445312 -19.675781 21.1875 -19.320312 20.03125 -18.875 C 18.875 -18.4375 17.957031 -17.84375 17.28125 -17.09375 C 16.601562 -16.351562 16.265625 -15.363281 16.265625 -14.125 C 16.265625 -12.53125 16.8125 -11.300781 17.90625 -10.4375 C 19 -9.582031 20.34375 -9.15625 21.9375 -9.15625 Z M 21.9375 -9.15625 "/></g></g></g><g fill="#000000" fill-opacity="1"><g transform="translate(224.969171, 204.909359)"><g><path d="M 2.125 0 L 2.125 -12 L 24.78125 -34.65625 L 24.78125 -35.453125 L 2.671875 -35.453125 L 2.671875 -46.90625 L 42.015625 -46.90625 L 42.015625 -34.828125 L 19.375 -12.171875 L 19.375 -11.546875 L 42.296875 -11.546875 L 42.296875 0 Z M 2.125 0 "/></g></g></g><g fill="#000000" fill-opacity="1"><g transform="translate(269.211619, 204.909359)"><g><path d="M 15.90625 1.25 C 13.414062 1.25 11.117188 0.804688 9.015625 -0.078125 C 6.910156 -0.972656 5.222656 -2.367188 3.953125 -4.265625 C 2.679688 -6.160156 2.046875 -8.617188 2.046875 -11.640625 C 2.046875 -14.660156 2.664062 -17.085938 3.90625 -18.921875 C 5.15625 -20.753906 6.816406 -22.203125 8.890625 -23.265625 C 10.960938 -24.335938 13.179688 -25.140625 15.546875 -25.671875 C 17.910156 -26.203125 20.160156 -26.648438 22.296875 -27.015625 C 24.960938 -27.484375 27.003906 -27.894531 28.421875 -28.25 C 29.847656 -28.601562 30.84375 -29.03125 31.40625 -29.53125 C 31.96875 -30.039062 32.25 -30.769531 32.25 -31.71875 C 32.25 -32.78125 31.96875 -33.695312 31.40625 -34.46875 C 30.84375 -35.238281 30.054688 -35.84375 29.046875 -36.28125 C 28.046875 -36.726562 26.832031 -36.953125 25.40625 -36.953125 C 23.988281 -36.953125 22.613281 -36.703125 21.28125 -36.203125 C 19.945312 -35.703125 18.847656 -34.859375 17.984375 -33.671875 C 17.128906 -32.484375 16.644531 -30.851562 16.53125 -28.78125 L 3.8125 -30.65625 C 4 -33.96875 4.742188 -36.75 6.046875 -39 C 7.347656 -41.25 9.035156 -43.039062 11.109375 -44.375 C 13.179688 -45.707031 15.488281 -46.671875 18.03125 -47.265625 C 20.582031 -47.859375 23.160156 -48.15625 25.765625 -48.15625 C 29.316406 -48.15625 32.378906 -47.695312 34.953125 -46.78125 C 37.535156 -45.863281 39.671875 -44.46875 41.359375 -42.59375 C 43.046875 -40.726562 44.285156 -38.421875 45.078125 -35.671875 C 45.878906 -32.921875 46.28125 -29.765625 46.28125 -26.203125 L 46.28125 -18.21875 C 46.28125 -16.195312 46.296875 -14.164062 46.328125 -12.125 C 46.359375 -10.082031 46.398438 -8.050781 46.453125 -6.03125 C 46.515625 -4.019531 46.578125 -2.007812 46.640625 0 L 34.109375 0 C 34.054688 -1.894531 34 -3.894531 33.9375 -6 C 33.875 -8.101562 33.816406 -10.304688 33.765625 -12.609375 L 32.875 -12.609375 C 32.394531 -10.066406 31.398438 -7.742188 29.890625 -5.640625 C 28.378906 -3.535156 26.425781 -1.859375 24.03125 -0.609375 C 21.632812 0.628906 18.925781 1.25 15.90625 1.25 Z M 21.9375 -9.15625 C 23.007812 -9.15625 24.109375 -9.347656 25.234375 -9.734375 C 26.359375 -10.117188 27.4375 -10.722656 28.46875 -11.546875 C 29.507812 -12.378906 30.382812 -13.472656 31.09375 -14.828125 C 31.800781 -16.191406 32.21875 -17.851562 32.34375 -19.8125 L 32.34375 -23.546875 L 34.5625 -23.546875 C 33.851562 -22.835938 32.90625 -22.242188 31.71875 -21.765625 C 30.53125 -21.296875 29.253906 -20.941406 27.890625 -20.703125 C 26.535156 -20.460938 25.175781 -20.207031 23.8125 -19.9375 C 22.445312 -19.675781 21.1875 -19.320312 20.03125 -18.875 C 18.875 -18.4375 17.957031 -17.84375 17.28125 -17.09375 C 16.601562 -16.351562 16.265625 -15.363281 16.265625 -14.125 C 16.265625 -12.53125 16.8125 -11.300781 17.90625 -10.4375 C 19 -9.582031 20.34375 -9.15625 21.9375 -9.15625 Z M 21.9375 -9.15625 "/></g></g></g></svg>