<svg xmlns="http://www.w3.org/2000/svg" xmlns:xlink="http://www.w3.org/1999/xlink" width="500" zoomAndPan="magnify" viewBox="0 0 375 374.999991" height="500" preserveAspectRatio="xMidYMid meet" version="1.0"><defs><g/><clipPath id="b0cb7e3593"><path d="M 56.011719 133 L 113.664062 133 L 113.664062 230.363281 L 56.011719 230.363281 Z M 56.011719 133 " clip-rule="nonzero"/></clipPath><clipPath id="3e6f2dd9c9"><path d="M 102.71875 132.816406 L 124.695312 132.816406 L 124.695312 154.792969 L 102.71875 154.792969 Z M 102.71875 132.816406 " clip-rule="nonzero"/></clipPath><clipPath id="2fb575c240"><path d="M 113.707031 132.816406 C 107.640625 132.816406 102.71875 137.738281 102.71875 143.804688 C 102.71875 149.875 107.640625 154.792969 113.707031 154.792969 C 119.777344 154.792969 124.695312 149.875 124.695312 143.804688 C 124.695312 137.738281 119.777344 132.816406 113.707031 132.816406 Z M 113.707031 132.816406 " clip-rule="nonzero"/></clipPath></defs><rect x="-37.5" width="450" fill="#ffffff" y="-37.499999" height="449.999989" fill-opacity="1"/><rect x="-37.5" width="450" fill="#000000" y="-37.499999" height="449.999989" fill-opacity="1"/><g clip-path="url(#b0cb7e3593)"><path fill="#ffffff" d="M 109.355469 181.589844 C 109.355469 178.894531 108.160156 176.371094 106.074219 174.664062 L 60.761719 137.546875 C 60.675781 137.476562 60.609375 137.46875 60.507812 137.515625 C 60.410156 137.5625 60.375 137.621094 60.375 137.730469 L 60.375 160.261719 C 60.375 160.335938 60.40625 160.398438 60.460938 160.445312 L 81.941406 178.039062 C 82.167969 178.226562 82.378906 178.433594 82.566406 178.660156 C 82.574219 178.667969 82.585938 178.679688 82.59375 178.6875 L 82.65625 178.753906 C 82.6875 178.789062 82.722656 178.824219 82.753906 178.855469 C 82.78125 178.886719 82.808594 178.914062 82.832031 178.941406 L 82.894531 179.007812 C 82.929688 179.042969 82.960938 179.078125 82.996094 179.113281 C 83.019531 179.144531 83.046875 179.171875 83.070312 179.195312 L 83.132812 179.261719 C 83.164062 179.300781 83.199219 179.335938 83.230469 179.375 C 83.253906 179.398438 83.277344 179.425781 83.300781 179.453125 L 83.363281 179.523438 C 83.398438 179.558594 83.429688 179.597656 83.464844 179.636719 C 83.488281 179.660156 83.507812 179.6875 83.53125 179.710938 L 83.589844 179.78125 C 83.625 179.820312 83.660156 179.859375 83.695312 179.898438 C 83.714844 179.921875 83.738281 179.949219 83.757812 179.972656 L 83.8125 180.039062 C 83.847656 180.078125 83.882812 180.121094 83.917969 180.164062 L 84.03125 180.296875 C 84.070312 180.339844 84.105469 180.386719 84.140625 180.429688 C 84.160156 180.453125 84.179688 180.472656 84.199219 180.496094 L 84.246094 180.554688 C 84.285156 180.601562 84.320312 180.648438 84.359375 180.695312 L 84.464844 180.828125 C 84.5 180.875 84.539062 180.921875 84.574219 180.964844 L 84.671875 181.089844 C 84.707031 181.136719 84.746094 181.1875 84.785156 181.238281 L 84.875 181.355469 C 84.914062 181.40625 84.953125 181.457031 84.992188 181.507812 L 85.078125 181.625 C 85.117188 181.679688 85.15625 181.730469 85.195312 181.785156 L 85.273438 181.890625 C 85.3125 181.945312 85.351562 182.003906 85.394531 182.058594 L 85.46875 182.167969 C 85.507812 182.222656 85.550781 182.28125 85.589844 182.335938 L 85.648438 182.421875 C 85.691406 182.484375 85.734375 182.550781 85.777344 182.613281 L 85.839844 182.703125 C 85.882812 182.765625 85.925781 182.832031 85.96875 182.894531 L 86.019531 182.976562 C 86.066406 183.042969 86.109375 183.109375 86.152344 183.175781 L 86.203125 183.257812 C 86.246094 183.324219 86.289062 183.390625 86.332031 183.460938 L 86.375 183.53125 C 86.417969 183.601562 86.464844 183.671875 86.507812 183.742188 L 86.550781 183.816406 C 86.59375 183.886719 86.636719 183.957031 86.679688 184.027344 L 86.71875 184.097656 C 86.761719 184.171875 86.804688 184.242188 86.847656 184.316406 L 86.886719 184.386719 C 86.925781 184.457031 86.96875 184.53125 87.011719 184.601562 L 87.046875 184.667969 C 87.089844 184.742188 87.128906 184.816406 87.171875 184.894531 L 87.203125 184.953125 C 87.246094 185.03125 87.285156 185.105469 87.324219 185.183594 L 87.355469 185.242188 C 87.398438 185.320312 87.4375 185.398438 87.476562 185.472656 L 87.507812 185.53125 C 87.546875 185.609375 87.585938 185.6875 87.625 185.765625 L 87.652344 185.820312 C 87.691406 185.902344 87.730469 185.980469 87.769531 186.0625 L 87.796875 186.121094 C 87.835938 186.199219 87.871094 186.277344 87.910156 186.355469 L 87.933594 186.410156 C 87.972656 186.492188 88.007812 186.570312 88.042969 186.652344 L 88.066406 186.703125 C 88.105469 186.785156 88.140625 186.867188 88.175781 186.949219 L 88.199219 187 C 88.234375 187.082031 88.269531 187.164062 88.304688 187.246094 L 88.324219 187.296875 C 88.359375 187.378906 88.394531 187.460938 88.425781 187.546875 L 88.445312 187.59375 C 88.480469 187.675781 88.515625 187.761719 88.546875 187.847656 L 88.5625 187.890625 C 88.597656 187.976562 88.628906 188.0625 88.660156 188.148438 L 88.679688 188.191406 C 88.710938 188.277344 88.742188 188.363281 88.773438 188.449219 L 88.789062 188.492188 C 88.820312 188.578125 88.851562 188.664062 88.878906 188.75 L 88.894531 188.796875 C 88.925781 188.882812 88.953125 188.96875 88.984375 189.054688 L 88.996094 189.097656 C 89.023438 189.183594 89.054688 189.273438 89.082031 189.359375 L 89.09375 189.398438 C 89.121094 189.484375 89.148438 189.574219 89.175781 189.664062 L 89.1875 189.699219 C 89.214844 189.789062 89.238281 189.878906 89.265625 189.972656 L 89.277344 190.007812 C 89.300781 190.097656 89.328125 190.1875 89.351562 190.277344 L 89.363281 190.316406 C 89.386719 190.40625 89.410156 190.496094 89.433594 190.585938 L 89.441406 190.625 C 89.464844 190.714844 89.488281 190.804688 89.511719 190.894531 L 89.515625 190.921875 C 89.542969 191.019531 89.5625 191.109375 89.582031 191.203125 L 89.59375 191.242188 C 89.613281 191.332031 89.632812 191.421875 89.652344 191.511719 L 89.660156 191.542969 C 89.679688 191.636719 89.699219 191.730469 89.714844 191.820312 L 89.722656 191.847656 C 89.742188 191.945312 89.757812 192.039062 89.777344 192.132812 L 89.78125 192.160156 C 89.800781 192.253906 89.816406 192.347656 89.832031 192.441406 L 89.835938 192.472656 C 89.855469 192.566406 89.867188 192.660156 89.882812 192.753906 L 89.886719 192.785156 C 89.902344 192.875 89.917969 192.972656 89.929688 193.066406 L 89.933594 193.09375 C 89.949219 193.1875 89.960938 193.285156 89.972656 193.378906 L 89.976562 193.40625 C 89.988281 193.5 90 193.597656 90.011719 193.691406 L 90.011719 193.707031 C 90.023438 193.804688 90.035156 193.90625 90.046875 194.003906 L 90.046875 194.023438 C 90.058594 194.121094 90.066406 194.21875 90.074219 194.316406 L 90.078125 194.351562 C 90.085938 194.445312 90.09375 194.539062 90.097656 194.632812 L 90.101562 194.65625 C 90.109375 194.753906 90.113281 194.847656 90.121094 194.945312 L 90.121094 194.972656 C 90.125 195.066406 90.132812 195.164062 90.136719 195.257812 L 90.136719 195.289062 C 90.140625 195.386719 90.144531 195.480469 90.144531 195.574219 L 90.148438 195.609375 C 90.148438 195.703125 90.152344 195.796875 90.152344 195.886719 L 90.152344 195.933594 C 90.15625 196.023438 90.15625 196.113281 90.15625 196.203125 L 90.15625 196.25 C 90.15625 196.449219 90.152344 196.648438 90.148438 196.832031 C 90.144531 196.855469 90.144531 196.878906 90.144531 196.902344 L 90.144531 196.972656 C 90.140625 197.027344 90.140625 197.089844 90.136719 197.148438 C 90.132812 197.253906 90.125 197.355469 90.121094 197.460938 C 90.109375 197.664062 90.09375 197.871094 90.078125 198.070312 C 89.957031 199.488281 89.699219 200.882812 89.304688 202.25 L 106.074219 188.515625 C 108.160156 186.808594 109.355469 184.285156 109.355469 181.589844 Z M 82.125 184.980469 C 82.066406 185.035156 82.003906 185.089844 81.941406 185.140625 L 60.460938 202.734375 C 60.402344 202.78125 60.375 202.847656 60.375 202.917969 L 60.375 225.449219 C 60.375 225.558594 60.410156 225.617188 60.507812 225.664062 C 60.605469 225.710938 60.675781 225.703125 60.761719 225.632812 L 77.707031 211.753906 L 77.730469 211.730469 C 77.792969 211.683594 77.851562 211.632812 77.910156 211.582031 L 77.96875 211.535156 C 78.003906 211.507812 78.039062 211.476562 78.074219 211.445312 L 78.332031 211.222656 C 78.363281 211.199219 78.394531 211.171875 78.425781 211.144531 L 78.492188 211.082031 C 78.542969 211.039062 78.597656 210.992188 78.648438 210.945312 L 78.667969 210.929688 C 82.78125 207.238281 85.21875 202.773438 85.710938 198.019531 C 85.71875 197.933594 85.726562 197.847656 85.734375 197.757812 L 85.738281 197.714844 C 85.753906 197.550781 85.765625 197.378906 85.773438 197.210938 C 85.78125 197.085938 85.789062 196.949219 85.792969 196.796875 L 85.796875 196.746094 C 85.796875 196.621094 85.800781 196.484375 85.800781 196.347656 L 85.804688 196.289062 C 85.804688 196.148438 85.800781 196.011719 85.800781 195.882812 L 85.800781 195.839844 C 85.792969 195.554688 85.78125 195.265625 85.761719 194.984375 L 85.757812 194.964844 C 85.75 194.832031 85.738281 194.691406 85.722656 194.546875 L 85.71875 194.503906 C 85.707031 194.363281 85.691406 194.226562 85.675781 194.089844 L 85.671875 194.054688 C 85.617188 193.621094 85.546875 193.183594 85.464844 192.753906 L 85.457031 192.714844 C 85.429688 192.582031 85.402344 192.441406 85.371094 192.304688 L 85.363281 192.269531 C 85.328125 192.121094 85.296875 191.980469 85.261719 191.84375 L 85.257812 191.832031 C 85.1875 191.550781 85.109375 191.261719 85.023438 190.972656 L 85.015625 190.941406 C 84.972656 190.808594 84.933594 190.671875 84.886719 190.535156 L 84.871094 190.492188 C 84.828125 190.347656 84.777344 190.210938 84.734375 190.082031 L 84.722656 190.050781 C 84.625 189.773438 84.519531 189.492188 84.40625 189.214844 L 84.394531 189.183594 C 84.34375 189.054688 84.285156 188.921875 84.226562 188.785156 L 84.203125 188.730469 C 84.148438 188.597656 84.089844 188.46875 84.03125 188.339844 L 84.011719 188.296875 C 83.941406 188.148438 83.878906 188.015625 83.820312 187.890625 L 83.816406 187.882812 C 83.753906 187.757812 83.6875 187.625 83.613281 187.480469 L 83.597656 187.449219 C 83.535156 187.324219 83.46875 187.199219 83.394531 187.0625 L 83.363281 187.003906 C 83.292969 186.875 83.222656 186.75 83.15625 186.628906 L 83.121094 186.570312 C 83.042969 186.429688 82.96875 186.304688 82.898438 186.1875 L 82.878906 186.15625 C 82.804688 186.03125 82.726562 185.90625 82.648438 185.78125 L 82.628906 185.75 C 82.554688 185.632812 82.476562 185.511719 82.386719 185.375 L 82.347656 185.3125 C 82.273438 185.203125 82.199219 185.09375 82.125 184.980469 Z M 56.023438 225.449219 L 56.023438 202.917969 C 56.023438 201.535156 56.632812 200.242188 57.703125 199.367188 L 79.183594 181.773438 C 79.277344 181.695312 79.296875 181.539062 79.222656 181.445312 L 79.21875 181.441406 C 79.210938 181.429688 79.199219 181.417969 79.183594 181.410156 L 57.703125 163.8125 C 56.632812 162.9375 56.023438 161.640625 56.023438 160.261719 L 56.023438 137.730469 C 56.023438 135.9375 57.027344 134.347656 58.644531 133.582031 C 60.265625 132.816406 62.132812 133.042969 63.519531 134.179688 L 108.832031 171.296875 C 111.929688 173.835938 113.707031 177.585938 113.707031 181.589844 C 113.707031 185.59375 111.929688 189.34375 108.832031 191.882812 L 80.511719 215.082031 C 80.492188 215.097656 80.472656 215.113281 80.453125 215.128906 L 63.519531 229 C 62.132812 230.136719 60.265625 230.363281 58.644531 229.597656 C 57.027344 228.832031 56.023438 227.242188 56.023438 225.449219 " fill-opacity="1" fill-rule="nonzero"/></g><g clip-path="url(#3e6f2dd9c9)"><g clip-path="url(#2fb575c240)"><path fill="#ffffff" d="M 102.71875 132.816406 L 124.695312 132.816406 L 124.695312 154.792969 L 102.71875 154.792969 Z M 102.71875 132.816406 " fill-opacity="1" fill-rule="nonzero"/></g></g><g fill="#ffffff" fill-opacity="1"><g transform="translate(125.468028, 204.90933)"><g><path d="M 21.140625 14.65625 C 19.191406 14.65625 17.085938 14.492188 14.828125 14.171875 C 12.578125 13.847656 10.367188 13.328125 8.203125 12.609375 C 6.046875 11.898438 4.082031 10.984375 2.3125 9.859375 L 5.6875 -4 C 7.757812 -1.988281 10.171875 -0.554688 12.921875 0.296875 C 15.679688 1.160156 18.1875 1.59375 20.4375 1.59375 C 22.925781 1.59375 25.023438 1.207031 26.734375 0.4375 C 28.453125 -0.320312 29.84375 -1.410156 30.90625 -2.828125 C 31.976562 -4.253906 32.78125 -5.945312 33.3125 -7.90625 C 33.84375 -9.863281 34.109375 -11.992188 34.109375 -14.296875 L 34.296875 -21.9375 L 33.046875 -21.9375 C 32.804688 -17.914062 32.050781 -14.613281 30.78125 -12.03125 C 29.507812 -9.457031 27.851562 -7.5625 25.8125 -6.34375 C 23.769531 -5.132812 21.351562 -4.53125 18.5625 -4.53125 C 15.539062 -4.53125 13.066406 -5.148438 11.140625 -6.390625 C 9.222656 -7.640625 7.726562 -9.222656 6.65625 -11.140625 C 5.59375 -13.066406 4.820312 -15.109375 4.34375 -17.265625 C 3.875 -19.429688 3.59375 -21.460938 3.5 -23.359375 C 3.414062 -25.253906 3.375 -26.738281 3.375 -27.8125 L 3.375 -46.90625 L 17.6875 -46.90625 L 17.6875 -31.890625 C 17.6875 -30.828125 17.695312 -29.613281 17.71875 -28.25 C 17.75 -26.882812 17.867188 -25.535156 18.078125 -24.203125 C 18.285156 -22.878906 18.625 -21.640625 19.09375 -20.484375 C 19.570312 -19.328125 20.238281 -18.40625 21.09375 -17.71875 C 21.957031 -17.039062 23.070312 -16.703125 24.4375 -16.703125 C 25.851562 -16.703125 27.050781 -17.128906 28.03125 -17.984375 C 29.007812 -18.847656 29.78125 -19.988281 30.34375 -21.40625 C 30.90625 -22.832031 31.300781 -24.460938 31.53125 -26.296875 C 31.769531 -28.128906 31.890625 -30.023438 31.890625 -31.984375 L 31.890625 -46.90625 L 46.203125 -46.90625 L 46.203125 -13.765625 C 46.203125 -11.515625 46.035156 -9.265625 45.703125 -7.015625 C 45.378906 -4.765625 44.847656 -2.570312 44.109375 -0.4375 C 43.367188 1.6875 42.363281 3.648438 41.09375 5.453125 C 39.820312 7.265625 38.265625 8.863281 36.421875 10.25 C 34.585938 11.644531 32.394531 12.726562 29.84375 13.5 C 27.300781 14.269531 24.398438 14.65625 21.140625 14.65625 Z M 21.140625 14.65625 "/></g></g></g><g fill="#ffffff" fill-opacity="1"><g transform="translate(175.218589, 204.90933)"><g><path d="M 15.90625 1.25 C 13.414062 1.25 11.117188 0.804688 9.015625 -0.078125 C 6.910156 -0.972656 5.222656 -2.367188 3.953125 -4.265625 C 2.679688 -6.160156 2.046875 -8.617188 2.046875 -11.640625 C 2.046875 -14.660156 2.664062 -17.085938 3.90625 -18.921875 C 5.15625 -20.753906 6.816406 -22.203125 8.890625 -23.265625 C 10.960938 -24.335938 13.179688 -25.140625 15.546875 -25.671875 C 17.910156 -26.203125 20.160156 -26.648438 22.296875 -27.015625 C 24.960938 -27.484375 27.003906 -27.894531 28.421875 -28.25 C 29.847656 -28.601562 30.84375 -29.03125 31.40625 -29.53125 C 31.96875 -30.039062 32.25 -30.769531 32.25 -31.71875 C 32.25 -32.78125 31.96875 -33.695312 31.40625 -34.46875 C 30.84375 -35.238281 30.054688 -35.84375 29.046875 -36.28125 C 28.046875 -36.726562 26.832031 -36.953125 25.40625 -36.953125 C 23.988281 -36.953125 22.613281 -36.703125 21.28125 -36.203125 C 19.945312 -35.703125 18.847656 -34.859375 17.984375 -33.671875 C 17.128906 -32.484375 16.644531 -30.851562 16.53125 -28.78125 L 3.8125 -30.65625 C 4 -33.96875 4.742188 -36.75 6.046875 -39 C 7.347656 -41.25 9.035156 -43.039062 11.109375 -44.375 C 13.179688 -45.707031 15.488281 -46.671875 18.03125 -47.265625 C 20.582031 -47.859375 23.160156 -48.15625 25.765625 -48.15625 C 29.316406 -48.15625 32.378906 -47.695312 34.953125 -46.78125 C 37.535156 -45.863281 39.671875 -44.46875 41.359375 -42.59375 C 43.046875 -40.726562 44.285156 -38.421875 45.078125 -35.671875 C 45.878906 -32.921875 46.28125 -29.765625 46.28125 -26.203125 L 46.28125 -18.21875 C 46.28125 -16.195312 46.296875 -14.164062 46.328125 -12.125 C 46.359375 -10.082031 46.398438 -8.050781 46.453125 -6.03125 C 46.515625 -4.019531 46.578125 -2.007812 46.640625 0 L 34.109375 0 C 34.054688 -1.894531 34 -3.894531 33.9375 -6 C 33.875 -8.101562 33.816406 -10.304688 33.765625 -12.609375 L 32.875 -12.609375 C 32.394531 -10.066406 31.398438 -7.742188 29.890625 -5.640625 C 28.378906 -3.535156 26.425781 -1.859375 24.03125 -0.609375 C 21.632812 0.628906 18.925781 1.25 15.90625 1.25 Z M 21.9375 -9.15625 C 23.007812 -9.15625 24.109375 -9.347656 25.234375 -9.734375 C 26.359375 -10.117188 27.4375 -10.722656 28.46875 -11.546875 C 29.507812 -12.378906 30.382812 -13.472656 31.09375 -14.828125 C 31.800781 -16.191406 32.21875 -17.851562 32.34375 -19.8125 L 32.34375 -23.546875 L 34.5625 -23.546875 C 33.851562 -22.835938 32.90625 -22.242188 31.71875 -21.765625 C 30.53125 -21.296875 29.253906 -20.941406 27.890625 -20.703125 C 26.535156 -20.460938 25.175781 -20.207031 23.8125 -19.9375 C 22.445312 -19.675781 21.1875 -19.320312 20.03125 -18.875 C 18.875 -18.4375 17.957031 -17.84375 17.28125 -17.09375 C 16.601562 -16.351562 16.265625 -15.363281 16.265625 -14.125 C 16.265625 -12.53125 16.8125 -11.300781 17.90625 -10.4375 C 19 -9.582031 20.34375 -9.15625 21.9375 -9.15625 Z M 21.9375 -9.15625 "/></g></g></g><g fill="#ffffff" fill-opacity="1"><g transform="translate(224.969171, 204.90933)"><g><path d="M 2.125 0 L 2.125 -12 L 24.78125 -34.65625 L 24.78125 -35.453125 L 2.671875 -35.453125 L 2.671875 -46.90625 L 42.015625 -46.90625 L 42.015625 -34.828125 L 19.375 -12.171875 L 19.375 -11.546875 L 42.296875 -11.546875 L 42.296875 0 Z M 2.125 0 "/></g></g></g><g fill="#ffffff" fill-opacity="1"><g transform="translate(269.211619, 204.90933)"><g><path d="M 15.90625 1.25 C 13.414062 1.25 11.117188 0.804688 9.015625 -0.078125 C 6.910156 -0.972656 5.222656 -2.367188 3.953125 -4.265625 C 2.679688 -6.160156 2.046875 -8.617188 2.046875 -11.640625 C 2.046875 -14.660156 2.664062 -17.085938 3.90625 -18.921875 C 5.15625 -20.753906 6.816406 -22.203125 8.890625 -23.265625 C 10.960938 -24.335938 13.179688 -25.140625 15.546875 -25.671875 C 17.910156 -26.203125 20.160156 -26.648438 22.296875 -27.015625 C 24.960938 -27.484375 27.003906 -27.894531 28.421875 -28.25 C 29.847656 -28.601562 30.84375 -29.03125 31.40625 -29.53125 C 31.96875 -30.039062 32.25 -30.769531 32.25 -31.71875 C 32.25 -32.78125 31.96875 -33.695312 31.40625 -34.46875 C 30.84375 -35.238281 30.054688 -35.84375 29.046875 -36.28125 C 28.046875 -36.726562 26.832031 -36.953125 25.40625 -36.953125 C 23.988281 -36.953125 22.613281 -36.703125 21.28125 -36.203125 C 19.945312 -35.703125 18.847656 -34.859375 17.984375 -33.671875 C 17.128906 -32.484375 16.644531 -30.851562 16.53125 -28.78125 L 3.8125 -30.65625 C 4 -33.96875 4.742188 -36.75 6.046875 -39 C 7.347656 -41.25 9.035156 -43.039062 11.109375 -44.375 C 13.179688 -45.707031 15.488281 -46.671875 18.03125 -47.265625 C 20.582031 -47.859375 23.160156 -48.15625 25.765625 -48.15625 C 29.316406 -48.15625 32.378906 -47.695312 34.953125 -46.78125 C 37.535156 -45.863281 39.671875 -44.46875 41.359375 -42.59375 C 43.046875 -40.726562 44.285156 -38.421875 45.078125 -35.671875 C 45.878906 -32.921875 46.28125 -29.765625 46.28125 -26.203125 L 46.28125 -18.21875 C 46.28125 -16.195312 46.296875 -14.164062 46.328125 -12.125 C 46.359375 -10.082031 46.398438 -8.050781 46.453125 -6.03125 C 46.515625 -4.019531 46.578125 -2.007812 46.640625 0 L 34.109375 0 C 34.054688 -1.894531 34 -3.894531 33.9375 -6 C 33.875 -8.101562 33.816406 -10.304688 33.765625 -12.609375 L 32.875 -12.609375 C 32.394531 -10.066406 31.398438 -7.742188 29.890625 -5.640625 C 28.378906 -3.535156 26.425781 -1.859375 24.03125 -0.609375 C 21.632812 0.628906 18.925781 1.25 15.90625 1.25 Z M 21.9375 -9.15625 C 23.007812 -9.15625 24.109375 -9.347656 25.234375 -9.734375 C 26.359375 -10.117188 27.4375 -10.722656 28.46875 -11.546875 C 29.507812 -12.378906 30.382812 -13.472656 31.09375 -14.828125 C 31.800781 -16.191406 32.21875 -17.851562 32.34375 -19.8125 L 32.34375 -23.546875 L 34.5625 -23.546875 C 33.851562 -22.835938 32.90625 -22.242188 31.71875 -21.765625 C 30.53125 -21.296875 29.253906 -20.941406 27.890625 -20.703125 C 26.535156 -20.460938 25.175781 -20.207031 23.8125 -19.9375 C 22.445312 -19.675781 21.1875 -19.320312 20.03125 -18.875 C 18.875 -18.4375 17.957031 -17.84375 17.28125 -17.09375 C 16.601562 -16.351562 16.265625 -15.363281 16.265625 -14.125 C 16.265625 -12.53125 16.8125 -11.300781 17.90625 -10.4375 C 19 -9.582031 20.34375 -9.15625 21.9375 -9.15625 Z M 21.9375 -9.15625 "/></g></g></g></svg>